<svg width="133" height="37" viewBox="0 0 133 37" fill="none" xmlns="http://www.w3.org/2000/svg">
<path d="M39.958 29V5.23755H49.3804C50.9866 5.23755 52.3012 5.56208 53.3243 6.21115C54.3584 6.84921 55.123 7.6688 55.6181 8.6699C56.1241 9.671 56.3772 10.7051 56.3772 11.7722C56.3772 13.0814 56.0636 14.1925 55.4366 15.1056C54.8205 16.0187 53.9789 16.6347 52.9118 16.9538V16.1287C54.408 16.4697 55.5411 17.1793 56.3111 18.2574C57.0922 19.3355 57.4828 20.5621 57.4828 21.9373C57.4828 23.3454 57.2132 24.5775 56.6742 25.6337C56.1351 26.6898 55.332 27.5148 54.2649 28.1089C53.2088 28.703 51.8997 29 50.3375 29H39.958ZM43.9844 25.2541H49.8425C50.5356 25.2541 51.1571 25.1166 51.7072 24.8416C52.2572 24.5555 52.6863 24.1595 52.9943 23.6534C53.3133 23.1364 53.4729 22.5258 53.4729 21.8218C53.4729 21.1837 53.3353 20.6116 53.0603 20.1056C52.7853 19.5995 52.3837 19.198 51.8557 18.901C51.3276 18.5929 50.6951 18.4389 49.958 18.4389H43.9844V25.2541ZM43.9844 14.726H49.3309C49.903 14.726 50.4145 14.616 50.8656 14.396C51.3166 14.176 51.6742 13.8514 51.9382 13.4224C52.2022 12.9933 52.3342 12.4653 52.3342 11.8382C52.3342 11.0131 52.0702 10.3256 51.5422 9.77551C51.0141 9.22546 50.277 8.95043 49.3309 8.95043H43.9844V14.726ZM66.1415 29.5116C64.8214 29.5116 63.7323 29.2915 62.8742 28.8515C62.0161 28.4114 61.334 27.8504 60.828 27.1683C60.3219 26.4862 59.9479 25.7602 59.7059 24.9901C59.4638 24.22 59.3043 23.4939 59.2273 22.8119C59.1613 22.1188 59.1283 21.5577 59.1283 21.1287V11.1782H63.1547V19.759C63.1547 20.3091 63.1932 20.9307 63.2702 21.6237C63.3472 22.3058 63.5233 22.9659 63.7983 23.6039C64.0843 24.231 64.5024 24.7481 65.0524 25.1551C65.6135 25.5621 66.367 25.7657 67.3131 25.7657C67.8192 25.7657 68.3197 25.6832 68.8148 25.5181C69.3098 25.3531 69.7554 25.0726 70.1514 24.6766C70.5585 24.2695 70.883 23.714 71.125 23.0099C71.3671 22.3058 71.4881 21.4147 71.4881 20.3366L73.8478 21.3432C73.8478 22.8614 73.5508 24.2365 72.9567 25.4686C72.3737 26.7008 71.5101 27.6854 70.366 28.4224C69.2218 29.1485 67.8137 29.5116 66.1415 29.5116ZM71.9666 29V23.4719H71.4881V11.1782H75.4815V29H71.9666ZM91.1243 29V20.4191C91.1243 19.8581 91.0858 19.2365 91.0088 18.5544C90.9318 17.8724 90.7503 17.2178 90.4643 16.5907C90.1892 15.9527 89.7712 15.4301 89.2101 15.0231C88.6601 14.616 87.912 14.4125 86.9659 14.4125C86.4598 14.4125 85.9593 14.495 85.4642 14.66C84.9692 14.825 84.5181 15.1111 84.1111 15.5181C83.7151 15.9141 83.396 16.4642 83.154 17.1683C82.912 17.8613 82.791 18.7524 82.791 19.8416L80.4312 18.8349C80.4312 17.3168 80.7228 15.9417 81.3058 14.7095C81.8999 13.4774 82.769 12.4983 83.9131 11.7722C85.0572 11.0351 86.4653 10.6666 88.1375 10.6666C89.4577 10.6666 90.5468 10.8866 91.4049 11.3267C92.2629 11.7667 92.945 12.3278 93.4511 13.0098C93.9571 13.6919 94.3312 14.418 94.5732 15.1881C94.8152 15.9582 94.9692 16.6897 95.0352 17.3828C95.1122 18.0649 95.1507 18.6204 95.1507 19.0495V29H91.1243ZM78.7646 29V11.1782H82.3124V16.7062H82.791V29H78.7646ZM99.8354 36.9208L103.268 27.4983L103.334 30.2706L95.5615 11.1782H99.7034L105.215 25.3036H104.159L109.522 11.1782H113.499L103.565 36.9208H99.8354ZM121.866 29.4951C120.084 29.4951 118.528 29.0935 117.197 28.2904C115.865 27.4873 114.831 26.3817 114.094 24.9736C113.368 23.5544 113.005 21.9263 113.005 20.0891C113.005 18.2189 113.379 16.5797 114.127 15.1716C114.875 13.7634 115.915 12.6633 117.246 11.8712C118.577 11.0791 120.117 10.6831 121.866 10.6831C123.66 10.6831 125.222 11.0847 126.553 11.8877C127.884 12.6908 128.918 13.8019 129.655 15.2211C130.392 16.6292 130.761 18.2519 130.761 20.0891C130.761 21.9373 130.387 23.5709 129.639 24.9901C128.902 26.3982 127.868 27.5038 126.536 28.3069C125.205 29.099 123.649 29.4951 121.866 29.4951ZM121.866 25.7657C123.451 25.7657 124.628 25.2376 125.398 24.1815C126.168 23.1254 126.553 21.7613 126.553 20.0891C126.553 18.3619 126.162 16.9868 125.381 15.9637C124.6 14.9295 123.429 14.4125 121.866 14.4125C120.799 14.4125 119.919 14.6545 119.226 15.1386C118.544 15.6116 118.038 16.2772 117.708 17.1353C117.378 17.9824 117.213 18.967 117.213 20.0891C117.213 21.8163 117.604 23.1969 118.385 24.231C119.177 25.2541 120.337 25.7657 121.866 25.7657Z" fill="white"/>
<path d="M4.70236 5.12708C2.38146 5.12708 0.5 6.97504 0.5 9.25461V17.2668C0.5 17.4267 0.752029 17.4752 0.822025 17.3314C1.86235 15.1949 3.95147 13.6614 6.77314 13.1252C7.78386 12.9331 8.83515 12.6961 9.60635 12.0151C10.2764 11.4235 10.635 10.7285 10.635 9.25461C10.635 6.97509 8.75361 5.12716 6.43279 5.12708H4.70236Z" fill="white"/>
<path d="M15.4922 21.637C15.4922 25.7033 12.1361 28.9997 7.99609 28.9997C3.85612 28.9997 0.5 25.7033 0.5 21.637C0.5 17.5708 3.85612 14.2744 7.99609 14.2744C12.1361 14.2744 15.4922 17.5708 15.4922 21.637ZM4.1798 21.637C4.1798 23.7072 5.88841 25.3854 7.99609 25.3854C10.1038 25.3854 11.8124 23.7072 11.8124 21.637C11.8124 19.5669 10.1038 17.8887 7.99609 17.8887C5.88841 17.8887 4.1798 19.5669 4.1798 21.637Z" fill="white"/>
</svg>
