<svg width="251" height="94" viewBox="0 0 251 94" fill="none" xmlns="http://www.w3.org/2000/svg">
<path d="M13.0983 73.7198V14.3137H36.6545C40.6699 14.3137 43.9565 15.125 46.5142 16.7477C49.0995 18.3428 51.0109 20.3918 52.2486 22.8945C53.5137 25.3973 54.1463 27.9826 54.1463 30.6503C54.1463 33.9232 53.3624 36.701 51.7948 38.9837C50.2546 41.2664 48.1507 42.8066 45.4829 43.6042V41.5415C49.2233 42.3941 52.0561 44.168 53.9813 46.8633C55.934 49.5585 56.9103 52.6251 56.9103 56.063C56.9103 59.5833 56.2365 62.6636 54.8888 65.3039C53.5412 67.9442 51.5335 70.0069 48.8657 71.4921C46.2255 72.9772 42.9526 73.7198 39.0472 73.7198H13.0983ZM23.1643 64.3551H37.8096C39.5423 64.3551 41.0962 64.0113 42.4713 63.3237C43.8465 62.6086 44.9191 61.6185 45.6892 60.3534C46.4867 59.0608 46.8855 57.5344 46.8855 55.7742C46.8855 54.179 46.5417 52.7489 45.8542 51.4837C45.1666 50.2186 44.1627 49.2148 42.8426 48.4722C41.5225 47.7021 39.9411 47.3171 38.0984 47.3171H23.1643V64.3551ZM23.1643 38.0349H36.5307C37.9609 38.0349 39.2397 37.7598 40.3674 37.2098C41.495 36.6597 42.3888 35.8484 43.0489 34.7758C43.7089 33.7032 44.039 32.383 44.039 30.8154C44.039 28.7527 43.3789 27.0337 42.0588 25.6586C40.7386 24.2834 38.8959 23.5959 36.5307 23.5959H23.1643V38.0349ZM78.5572 74.9987C75.2568 74.9987 72.5341 74.4486 70.3888 73.3485C68.2436 72.2484 66.5384 70.8457 65.2733 69.1406C64.0082 67.4354 63.0731 65.6202 62.468 63.695C61.863 61.7698 61.4642 59.9546 61.2717 58.2494C61.1066 56.5168 61.0241 55.1141 61.0241 54.0415V29.1652H71.0902V50.6174C71.0902 51.9925 71.1864 53.5465 71.3789 55.2791C71.5715 56.9843 72.0115 58.6345 72.6991 60.2296C73.4142 61.7973 74.4593 63.0899 75.8344 64.1075C77.2371 65.1252 79.121 65.634 81.4862 65.634C82.7514 65.634 84.0028 65.4277 85.2404 65.0151C86.478 64.6026 87.5919 63.9013 88.582 62.9112C89.5996 61.8936 90.4109 60.5047 91.016 58.7445C91.621 56.9843 91.9236 54.7566 91.9236 52.0613L97.8229 54.5778C97.8229 58.3732 97.0804 61.8111 95.5952 64.8914C94.1375 67.9717 91.9786 70.4332 89.1183 72.2759C86.258 74.0911 82.7376 74.9987 78.5572 74.9987ZM93.1199 73.7198V59.8996H91.9236V29.1652H101.907V73.7198H93.1199ZM141.014 73.7198V52.2676C141.014 50.8649 140.918 49.311 140.725 47.6058C140.533 45.9007 140.079 44.2642 139.364 42.6966C138.676 41.1014 137.631 39.795 136.229 38.7774C134.854 37.7598 132.983 37.251 130.618 37.251C129.353 37.251 128.102 37.4573 126.864 37.8698C125.626 38.2824 124.499 38.9975 123.481 40.0151C122.491 41.0052 121.693 42.3803 121.088 44.1405C120.483 45.8732 120.181 48.1009 120.181 50.8237L114.281 48.3072C114.281 44.5118 115.01 41.0739 116.468 37.9936C117.953 34.9133 120.126 32.4655 122.986 30.6503C125.846 28.8077 129.367 27.8863 133.547 27.8863C136.848 27.8863 139.57 28.4364 141.716 29.5365C143.861 30.6366 145.566 32.0392 146.831 33.7444C148.096 35.4496 149.031 37.2648 149.636 39.19C150.241 41.1152 150.626 42.9441 150.791 44.6768C150.984 46.382 151.08 47.7709 151.08 48.8435V73.7198H141.014ZM110.115 73.7198V29.1652H118.984V42.9854H120.181V73.7198H110.115ZM162.792 93.5218L171.373 69.9657L171.538 76.8964L152.107 29.1652H162.462L176.241 64.4788H173.601L187.008 29.1652H196.95L172.115 93.5218H162.792ZM217.87 74.9574C213.414 74.9574 209.522 73.9536 206.195 71.9459C202.867 69.9381 200.282 67.1741 198.439 63.6537C196.624 60.1059 195.716 56.0355 195.716 51.4425C195.716 46.767 196.651 42.6691 198.521 39.1487C200.392 35.6284 202.991 32.8781 206.318 30.8979C209.646 28.9177 213.497 27.9276 217.87 27.9276C222.353 27.9276 226.258 28.9314 229.586 30.9391C232.914 32.9468 235.499 35.7246 237.342 39.2725C239.184 42.7928 240.106 46.8495 240.106 51.4425C240.106 56.063 239.171 60.1471 237.3 63.695C235.458 67.2154 232.872 69.9794 229.545 71.9871C226.217 73.9673 222.325 74.9574 217.87 74.9574ZM217.87 65.634C221.83 65.634 224.773 64.3138 226.698 61.6735C228.623 59.0333 229.586 55.6229 229.586 51.4425C229.586 47.1245 228.609 43.6867 226.657 41.1289C224.704 38.5437 221.775 37.251 217.87 37.251C215.202 37.251 213.002 37.8561 211.269 39.0662C209.564 40.2488 208.299 41.9128 207.473 44.058C206.648 46.1757 206.236 48.6372 206.236 51.4425C206.236 55.7604 207.212 59.212 209.165 61.7973C211.145 64.3551 214.047 65.634 217.87 65.634Z" fill="#0D0D0D"/>
</svg>
